<svg width="40" height="40" viewBox="0 0 40 40" fill="none" xmlns="http://www.w3.org/2000/svg">
<circle cx="20" cy="20" r="20" fill="#D272FF"/>
<g clip-path="url(#clip0_141_415)">
<path fill-rule="evenodd" clip-rule="evenodd" d="M16.926 9.22909C15.1985 9.22909 13.7976 10.6299 13.7976 12.3585C13.7976 14.0871 15.1985 15.4879 16.926 15.4879C18.6535 15.4879 20.0544 14.0871 20.0544 12.3585C20.0544 10.6299 18.6535 9.22909 16.926 9.22909ZM11.5654 12.3585C11.5654 9.39766 13.9652 6.99695 16.926 6.99695C19.8868 6.99695 22.2865 9.39766 22.2865 12.3585C22.2865 15.3194 19.8868 17.7201 16.926 17.7201C13.9652 17.7201 11.5654 15.3194 11.5654 12.3585ZM8.00098 29.0948C8.00098 23.8853 11.9124 19.5031 16.9258 19.5031C21.4297 19.5031 25.0442 23.0398 25.7324 27.5357H22.7074C21.1343 27.5357 19.8327 28.698 19.6146 30.2109H9.11705C8.50066 30.2109 8.00098 29.7111 8.00098 29.0948ZM21.446 30.2109C21.6308 29.6925 22.1256 29.3214 22.7074 29.3214H23.1538H31.2622C32.0019 29.3214 32.6015 29.9211 32.6015 30.6607C32.6015 31.4004 32.0019 32 31.2622 32H22.7078C21.9682 32 21.3686 31.4004 21.3686 30.6607C21.3686 30.5029 21.3959 30.3514 21.446 30.2109Z" fill="black"/>
</g>
<defs>
<clipPath id="clip0_141_415">
<rect width="25" height="25" fill="white" transform="translate(8 7)"/>
</clipPath>
</defs>
</svg>
