<svg width="40" height="40" viewBox="0 0 40 40" fill="none" xmlns="http://www.w3.org/2000/svg">
<circle cx="20" cy="20" r="20" fill="#C1FF8F"/>
<g clip-path="url(#clip0_141_360)">
<path fill-rule="evenodd" clip-rule="evenodd" d="M13.7978 12.3585C13.7978 10.6299 15.1987 9.22909 16.9262 9.22909C18.6537 9.22909 20.0546 10.6299 20.0546 12.3585C20.0546 14.0871 18.6537 15.4879 16.9262 15.4879C15.1987 15.4879 13.7978 14.0871 13.7978 12.3585ZM16.9262 6.99695C13.9654 6.99695 11.5657 9.39766 11.5657 12.3585C11.5657 15.3194 13.9654 17.7201 16.9262 17.7201C19.887 17.7201 22.2868 15.3194 22.2868 12.3585C22.2868 9.39766 19.887 6.99695 16.9262 6.99695ZM28.0896 20.8393C28.0896 20.0996 27.49 19.5 26.7503 19.5C26.0107 19.5 25.4111 20.0996 25.4111 20.8393V24.4107H21.8396C21.1 24.4107 20.5003 25.0104 20.5003 25.75C20.5003 26.4896 21.1 27.0893 21.8396 27.0893H25.4111V30.6607C25.4111 31.4004 26.0107 32 26.7503 32C27.49 32 28.0896 31.4004 28.0896 30.6607V27.0893H31.6611C32.4007 27.0893 33.0003 26.4896 33.0003 25.75C33.0003 25.0104 32.4007 24.4107 31.6611 24.4107H28.0896V20.8393ZM23.5153 22.625H21.8396C20.1137 22.625 18.7146 24.0241 18.7146 25.75C18.7146 27.4759 20.1137 28.875 21.8396 28.875H23.6253V30.2109H9.11729C8.5009 30.2109 8.00122 29.7111 8.00122 29.0948C8.00122 23.8853 11.9127 19.5031 16.9261 19.5031C19.564 19.5031 21.8969 20.7163 23.5153 22.625Z" fill="black"/>
</g>
<defs>
<clipPath id="clip0_141_360">
<rect width="25" height="25" fill="white" transform="translate(8 7)"/>
</clipPath>
</defs>
</svg>
