<svg width="40" height="40" viewBox="0 0 40 40" fill="none" xmlns="http://www.w3.org/2000/svg">
<circle cx="20" cy="20" r="20" fill="#FFD179"/>
<g clip-path="url(#clip0_141_365)">
<path d="M13.9283 22.9364L23.7134 9.72854L31.3769 7.8632L29.5593 15.5745L16.8348 25.8429" fill="white"/>
<path d="M13.5598 22.6386L23.4187 9.33012L31.9922 7.24346L29.9612 15.86L17.1437 26.2035L16.5262 25.4824L29.1583 15.2884L30.7623 8.48234L24.0082 10.127L14.2977 23.2349L13.5598 22.6386Z" fill="#1D1D1B"/>
<path d="M12.9409 21.9488L18.0153 27.0231C18.341 27.3488 18.3816 27.837 18.1061 28.1126L17.4089 28.8097L11.1939 22.5947L11.9246 21.8641C12.1818 21.6068 12.6369 21.6448 12.9409 21.9488Z" fill="white"/>
<path d="M17.4606 29.4303L10.5733 22.543L11.5884 21.528C12.0017 21.1146 12.736 21.1751 13.2253 21.6644L18.2997 26.7387C18.8106 27.2497 18.8745 28.0164 18.4422 28.4488L17.4606 29.4303ZM11.8144 22.6465L17.3572 28.1892L17.7699 27.7765C17.8887 27.6576 17.8705 27.4473 17.7308 27.3076L12.6565 22.2332C12.5384 22.1152 12.3605 22.1004 12.2607 22.2003L11.8144 22.6465Z" fill="#1D1D1B"/>
<path d="M12.0305 23.4314L11.1482 24.3137C10.9522 24.5097 10.9811 24.8558 11.2127 25.0874L14.8924 28.7671C15.1568 29.0315 15.5537 29.0619 15.7737 28.8344L16.5902 27.9911L12.0305 23.4314Z" fill="white"/>
<path d="M14.6079 29.0516L10.9282 25.3718C10.5121 24.9558 10.4599 24.3297 10.812 23.9776L11.9788 22.8109L17.2062 28.0383L16.1129 29.166C15.9313 29.3536 15.674 29.4451 15.3886 29.4227C15.104 29.401 14.8259 29.2683 14.6078 29.0502L14.6079 29.0516ZM12.0822 24.052L11.4843 24.6499C11.4457 24.6885 11.4515 24.7574 11.497 24.803L15.1767 28.4827C15.2268 28.5328 15.2825 28.5442 15.3101 28.5465C15.3383 28.5482 15.3915 28.5458 15.4331 28.5027L15.9734 27.9445L12.0816 24.0526L12.0822 24.052Z" fill="#1D1D1B"/>
<path d="M15.5595 24.3199C19.5209 20.1987 24.8093 14.6966 28.77 10.5746L15.5595 24.3199Z" fill="white"/>
<path d="M15.2183 23.989L28.7694 10.5754L15.9001 24.6518L15.2183 23.989Z" fill="#1D1D1B"/>
<path d="M14.0796 27.9544L12.0508 25.9255L8.2338 29.7425L10.2626 31.7714L14.0796 27.9544Z" fill="white"/>
<path d="M10.3143 32.392L7.6132 29.6908L11.999 25.305L14.7002 28.0061L10.3143 32.392ZM8.85434 29.7943L10.2109 31.1508L13.459 27.9027L12.1025 26.5461L8.85434 29.7943Z" fill="#1D1D1B"/>
<path d="M7.66504 30.3113L8.23389 29.7425L10.2627 31.7713L9.62499 32.4091C9.23943 32.7946 8.55818 32.7379 8.10251 32.2822L7.80446 31.9841C7.30397 31.4836 7.24156 30.7348 7.66504 30.3113Z" fill="white"/>
<path d="M7.81805 32.5666L7.52 32.2686C6.83501 31.5836 6.74926 30.5548 7.32885 29.9752L8.18213 29.1219L10.8833 31.8231L9.9611 32.7453C9.41943 33.2869 8.45823 33.2068 7.81805 32.5666ZM8.28558 30.3631L8.00115 30.6475C7.73506 30.9136 7.77437 31.3852 8.08885 31.6997L8.3869 31.9978C8.65657 32.2675 9.06063 32.3011 9.2888 32.073L9.64212 31.7196L8.28558 30.3631Z" fill="#1D1D1B"/>
<path d="M12.3868 25.9144L11.7148 25.9344L12.3754 29.3323L13.0473 29.3123L12.3868 25.9144Z" fill="#1D1D1B"/>
<path d="M11.0169 27.2666L10.3523 27.3201L11.1449 30.5852L11.8095 30.5317L11.0169 27.2666Z" fill="#1D1D1B"/>
<path d="M9.7842 28.5184L9.11206 28.5372L9.63146 31.233L10.3036 31.2142L9.7842 28.5184Z" fill="#1D1D1B"/>
</g>
<g clip-path="url(#clip1_141_365)">
<path d="M22.9364 25.8915L9.72854 16.1064L7.8632 8.44289L15.5745 10.2604L25.8429 22.9849" fill="white"/>
<path d="M22.6386 26.26L9.33012 16.4012L7.24346 7.82759L15.86 9.85862L26.2035 22.6762L25.4824 23.2936L15.2884 10.6615L8.48234 9.05751L10.127 15.8116L23.2349 25.5222L22.6386 26.26Z" fill="#1D1D1B"/>
<path d="M21.949 26.879L27.0233 21.8047C27.349 21.479 27.8372 21.4383 28.1128 21.7139L28.8099 22.411L22.5949 28.626L21.8643 27.8954C21.607 27.6381 21.6449 27.1831 21.949 26.879Z" fill="white"/>
<path d="M29.4305 22.3593L22.5432 29.2466L21.5281 28.2315C21.1147 27.8181 21.1752 27.0839 21.6645 26.5946L26.7389 21.5202C27.2498 21.0093 28.0166 20.9454 28.4489 21.3777L29.4305 22.3593ZM22.6466 28.0054L28.1893 22.4627L27.7766 22.05C27.6578 21.9312 27.4474 21.9494 27.3077 22.0891L22.2334 27.1634C22.1153 27.2815 22.1005 27.4593 22.2004 27.5592L22.6466 28.0054Z" fill="#1D1D1B"/>
<path d="M23.4314 27.7894L24.3137 28.6718C24.5097 28.8677 24.8558 28.8389 25.0874 28.6073L28.7671 24.9276C29.0315 24.6632 29.0619 24.2662 28.8344 24.0462L27.9911 23.2298L23.4314 27.7894Z" fill="white"/>
<path d="M29.0515 25.212L25.3718 28.8917C24.9557 29.3078 24.3296 29.36 23.9776 29.0079L22.8108 27.8411L28.0383 22.6136L29.166 23.707C29.3535 23.8886 29.4451 24.1459 29.4226 24.4313C29.401 24.7159 29.2682 24.994 29.0501 25.2121L29.0515 25.212ZM24.0519 27.7377L24.6499 28.3356C24.6884 28.3742 24.7574 28.3684 24.8029 28.3228L28.4826 24.6431C28.5327 24.5931 28.5442 24.5374 28.5465 24.5098C28.5481 24.4816 28.5457 24.4284 28.5026 24.3868L27.9444 23.8465L24.0526 27.7383L24.0519 27.7377Z" fill="#1D1D1B"/>
<path d="M24.3198 24.2601C20.1985 20.2987 14.6965 15.0103 10.5745 11.0496L24.3198 24.2601Z" fill="white"/>
<path d="M23.989 24.6015L10.5753 11.0504L24.6518 23.9197L23.989 24.6015Z" fill="#1D1D1B"/>
<path d="M27.9544 25.7403L25.9255 27.7692L29.7425 31.5861L31.7714 29.5573L27.9544 25.7403Z" fill="white"/>
<path d="M32.3919 29.5056L29.6908 32.2067L25.3049 27.8209L28.0061 25.1197L32.3919 29.5056ZM29.7942 30.9655L31.1508 29.609L27.9026 26.3609L26.5461 27.7174L29.7942 30.9655Z" fill="#1D1D1B"/>
<path d="M30.3115 32.155L29.7427 31.5861L31.7715 29.5573L32.4093 30.195C32.7948 30.5806 32.738 31.2618 32.2824 31.7175L31.9843 32.0155C31.4838 32.516 30.735 32.5784 30.3115 32.155Z" fill="white"/>
<path d="M32.5668 32.0019L32.2687 32.2999C31.5837 32.9849 30.5549 33.0707 29.9753 32.4911L29.1221 31.6378L31.8232 28.9367L32.7454 29.8588C33.287 30.4005 33.2069 31.3617 32.5668 32.0019ZM30.3632 31.5344L30.6476 31.8188C30.9137 32.0849 31.3854 32.0456 31.6999 31.7311L31.9979 31.433C32.2676 31.1634 32.3013 30.7593 32.0731 30.5311L31.7198 30.1778L30.3632 31.5344Z" fill="#1D1D1B"/>
<path d="M25.9143 27.4331L25.9343 28.105L29.3322 27.4445L29.3122 26.7726L25.9143 27.4331Z" fill="#1D1D1B"/>
<path d="M27.2666 28.8029L27.3201 29.4675L30.5852 28.6749L30.5317 28.0103L27.2666 28.8029Z" fill="#1D1D1B"/>
<path d="M28.5183 30.0357L28.5371 30.7078L31.2329 30.1884L31.2141 29.5163L28.5183 30.0357Z" fill="#1D1D1B"/>
</g>
<defs>
<clipPath id="clip0_141_365">
<rect width="10" height="35" fill="white" transform="translate(28.7488 4) rotate(45)"/>
</clipPath>
<clipPath id="clip1_141_365">
<rect width="10" height="35" fill="white" transform="translate(4 11.071) rotate(-45)"/>
</clipPath>
</defs>
</svg>
